<svg width="212" height="73" viewBox="0 0 212 73" fill="none" xmlns="http://www.w3.org/2000/svg">
<path d="M5.67915 11.5678C4.72193 17.3111 3.61681 22.7358 3.22954 28.5449C3.22954 30.5534 1.91139 32.0963 2.00473 34.0565C2.16311 37.3824 3.01269 39.4445 2.65116 42.6982C2.19453 46.8079 2.4249 50.1454 4.93065 53.6534C6.31099 55.5859 7.37695 58.0631 9.01334 59.7774C9.97389 60.7837 12.5155 63.9166 13.8785 64.0302C16.6031 64.2573 19.3069 63.856 22.0099 64.4725C24.9148 65.135 27.3577 66.8817 30.4134 66.718C38.4826 66.2857 45.0374 66.5834 52.9702 68.6232C58.6486 70.0834 64.3365 71.4042 70.2535 70.6646C76.9774 69.8241 83.2181 67.0186 89.9865 66.2757C99.9478 65.1824 110.204 64.9687 120.198 65.153C124.26 65.2278 127.895 64.1578 131.902 63.8941C136.256 63.6077 140.379 64.5137 144.694 63.4519C148.249 62.5772 150.688 61.6123 154.289 63.0096C157.157 64.1227 159.89 66.1301 163.101 65.9695C166.238 65.8126 169.083 64.1861 172.253 64.0643C175.03 63.9574 177.776 63.9857 180.554 63.758C186.325 63.285 192.364 63.7661 197.837 61.4786C201.953 59.7584 204.056 56.421 205.662 52.5647C207.201 48.872 208.427 44.9574 209.609 41.1332C211.351 35.4984 207.312 29.9368 205.084 25.0066C202.094 18.3911 198.398 12.2291 191.781 8.47175C185.734 5.03761 178.152 5.31585 171.504 3.91275C168.157 3.20643 165.231 2.25428 161.774 2.34772C157.958 2.45086 153.885 2.13832 150.104 2.65393C146.707 3.11715 143.572 4.58453 140.203 5.13756C136.884 5.68253 134.476 5.77509 131.222 7.07683C128.099 8.32588 125.23 8.0886 121.968 7.45108C115.508 6.18896 109.062 4.35839 102.439 4.21895C98.6564 4.13933 95.1449 5.57243 91.4154 5.61387C89.2044 5.63844 87.1856 4.66989 85.0192 4.38907C80.906 3.85587 77.4658 4.65064 73.5197 5.61387C67.9091 6.98339 62.22 5.66576 56.7467 4.287L56.4742 4.21834C49.9392 2.5715 44.0378 1.08431 37.3199 2.68795C34.9196 3.26093 32.6678 4.01516 30.1752 4.04884C28.4807 4.07174 26.5525 3.28706 24.9018 3.60655C22.8692 3.99996 21.2953 5.71718 19.4922 6.63454C16.7819 8.01345 14.1403 8.33566 11.1567 8.33566C9.28361 8.33566 6.0309 9.45725 5.67915 11.5678Z" fill="#343434" stroke="#343434" stroke-width="3" stroke-linecap="round"/>
<path d="M35.3448 26.712C38.2462 26.712 40.5395 27.1173 42.2248 27.928C43.9315 28.7173 45.2222 29.6027 46.0968 30.584C46.8008 31.3947 47.3768 32.3333 47.8248 33.4C48.2728 34.4453 48.4968 35.704 48.4968 37.176C48.4968 38.264 48.2515 39.4053 47.7608 40.6C47.2702 41.7733 46.6302 42.7227 45.8408 43.448C45.0088 44.2373 44.2195 44.8773 43.4728 45.368C42.7475 45.8587 41.7555 46.264 40.4968 46.584C39.2595 46.8827 37.6808 47.032 35.7608 47.032C34.3102 47.032 32.9982 46.872 31.8248 46.552C30.6515 46.2107 30.0648 45.6453 30.0648 44.856C30.0648 44.536 30.2035 44.2907 30.4808 44.12C30.7795 43.928 31.0995 43.832 31.4408 43.832C31.6328 43.832 31.7608 43.8427 31.8248 43.864C31.9742 42.456 32.0488 40.9627 32.0488 39.384C32.0488 37.6133 32.0062 36.152 31.9208 35C31.8355 33.8267 31.7182 32.664 31.5688 31.512C31.5475 31.3627 31.4942 30.9467 31.4088 30.264C31.3448 29.5813 31.3128 28.888 31.3128 28.184C31.3128 27.736 31.5368 27.3627 31.9848 27.064C32.4328 26.744 32.8915 26.584 33.3608 26.584C33.6382 26.584 34.0115 26.6053 34.4808 26.648C34.8648 26.6907 35.1528 26.712 35.3448 26.712ZM34.9288 44.024C35.4408 44.1093 36.1128 44.152 36.9448 44.152C38.3528 44.152 39.6862 43.864 40.9448 43.288C42.2035 42.6907 43.2168 41.8693 43.9848 40.824C44.7528 39.7573 45.1368 38.5307 45.1368 37.144C45.1368 35.6933 44.8808 34.456 44.3688 33.432C43.8568 32.408 43.0675 31.5653 42.0008 30.904C41.2115 30.4133 40.2408 30.0613 39.0888 29.848C37.9368 29.6133 36.5502 29.496 34.9288 29.496C34.9288 30.008 34.9608 30.648 35.0248 31.416C35.0248 31.672 35.0462 32.12 35.0888 32.76C35.2168 35.2347 35.2808 37.2293 35.2808 38.744C35.2808 40.9413 35.1635 42.7013 34.9288 44.024ZM65.0763 42.648C65.4817 42.648 65.7803 42.808 65.9723 43.128C66.1857 43.4267 66.2923 43.7573 66.2923 44.12C66.2923 44.568 66.2177 44.888 66.0683 45.08C65.9403 45.2507 65.6843 45.432 65.3003 45.624C64.4043 46.0507 63.295 46.392 61.9723 46.648C60.6497 46.904 59.231 47.032 57.7163 47.032C55.8177 47.032 54.4203 46.712 53.5243 46.072C52.6497 45.432 52.1057 44.664 51.8923 43.768C51.7003 42.8507 51.6043 41.656 51.6043 40.184C51.6043 38.6053 51.6683 37.0587 51.7963 35.544C51.9243 34.008 52.1483 32.056 52.4683 29.688C52.6177 28.664 53.023 27.928 53.6843 27.48C54.3457 27.0107 55.071 26.776 55.8603 26.776C56.5217 26.776 57.599 26.7547 59.0923 26.712L61.8763 26.68C63.0283 26.68 63.8603 26.712 64.3723 26.776C65.0123 26.904 65.4817 27.0533 65.7803 27.224C66.1003 27.3733 66.2603 27.64 66.2603 28.024C66.2603 28.4507 66.111 28.8667 65.8123 29.272C65.535 29.6773 65.1083 29.88 64.5323 29.88C63.871 29.88 62.9217 29.8373 61.6843 29.752C60.447 29.6667 59.519 29.624 58.9003 29.624C58.367 29.624 57.8443 29.656 57.3323 29.72C56.735 29.7627 56.3083 29.8373 56.0523 29.944C55.7963 30.0507 55.647 30.232 55.6043 30.488C55.3057 32.6853 55.1563 34.3067 55.1563 35.352C55.647 35.416 56.127 35.448 56.5963 35.448C57.1937 35.448 57.8337 35.416 58.5163 35.352C59.199 35.288 59.6363 35.2453 59.8283 35.224C60.959 35.1173 61.9297 35.064 62.7403 35.064C63.2097 35.064 63.5617 35.1493 63.7963 35.32C64.0523 35.4907 64.1803 35.7253 64.1803 36.024C64.1803 36.4933 64.0523 36.856 63.7963 37.112C63.5617 37.368 63.135 37.56 62.5163 37.688C61.7697 37.8373 60.8417 37.9547 59.7323 38.04C58.6443 38.1253 57.5777 38.168 56.5323 38.168C56.1697 38.168 55.6683 38.1467 55.0283 38.104C54.9643 39.4053 54.9323 40.6107 54.9323 41.72C54.9323 43.2347 55.935 43.992 57.9403 43.992C59.007 43.992 59.8923 43.9173 60.5963 43.768C61.3003 43.6187 62.111 43.4053 63.0283 43.128C63.8817 42.808 64.5643 42.648 65.0763 42.648ZM70.3166 26.936C70.6793 26.936 71.0526 27.032 71.4366 27.224C71.8419 27.416 72.2366 27.7253 72.6206 28.152C73.1539 28.792 74.3166 30.2747 76.1086 32.6L77.2286 34.072C79.4259 31.064 80.9299 29.08 81.7406 28.12C82.2313 27.5227 82.6259 27.1387 82.9246 26.968C83.2233 26.7973 83.5646 26.712 83.9486 26.712C84.3539 26.712 84.6633 26.8507 84.8766 27.128C85.1113 27.384 85.2286 27.736 85.2286 28.184C85.2286 28.6747 85.1006 29.2293 84.8446 29.848C84.0979 30.5307 83.2659 31.4373 82.3486 32.568C81.4526 33.6987 80.3966 35.0853 79.1806 36.728C81.9326 40.44 83.8206 42.6907 84.8446 43.48C85.3353 43.9707 85.6873 44.3973 85.9006 44.76C86.1353 45.1013 86.2526 45.304 86.2526 45.368C86.2526 45.8587 86.0926 46.2853 85.7726 46.648C85.4739 46.9893 85.0793 47.16 84.5886 47.16C84.3753 47.16 84.1299 47.1173 83.8526 47.032C83.5966 46.968 83.4046 46.872 83.2766 46.744C82.5086 46.0187 81.6553 45.0693 80.7166 43.896C79.7779 42.7227 78.6153 41.2187 77.2286 39.384C75.9486 41.1547 74.8286 42.648 73.8686 43.864C72.9299 45.0587 72.0873 46.0187 71.3406 46.744C71.1913 46.872 70.9779 46.968 70.7006 47.032C70.4446 47.1173 70.2206 47.16 70.0286 47.16C69.5593 47.16 69.1539 46.968 68.8126 46.584C68.4926 46.1787 68.3219 45.7733 68.3006 45.368C68.3006 45.304 68.4179 45.0907 68.6526 44.728C68.8873 44.3653 69.2499 43.9493 69.7406 43.48C70.7219 42.6907 72.5673 40.44 75.2766 36.728C72.7379 33.3573 70.8286 31.0747 69.5486 29.88C69.3139 29.6027 69.1326 29.3573 69.0046 29.144C68.8766 28.9093 68.8126 28.6747 68.8126 28.44C68.8126 28.0133 68.9513 27.6613 69.2286 27.384C69.5273 27.0853 69.8899 26.936 70.3166 26.936ZM87.1918 28.344C87.1918 27.4267 87.8638 26.968 89.2078 26.968C89.7838 26.968 90.8825 26.9893 92.5038 27.032C94.2958 27.1173 95.6505 27.16 96.5678 27.16C97.3145 27.16 98.2212 27.1173 99.2878 27.032C100.013 26.9893 100.472 26.968 100.664 26.968C101.837 27.0107 102.829 27.224 103.64 27.608C103.875 27.7147 104.067 27.8427 104.216 27.992C104.365 28.1413 104.44 28.3867 104.44 28.728C104.44 29.1973 104.291 29.6027 103.992 29.944C103.693 30.264 103.331 30.424 102.904 30.424C102.435 30.424 101.752 30.36 100.856 30.232C100.067 30.0827 99.3732 30.008 98.7758 30.008C98.1998 30.008 97.7625 30.0187 97.4638 30.04C97.3998 30.744 97.3678 32.4293 97.3678 35.096C97.3678 38.2747 97.4638 41.496 97.6558 44.76L97.7198 45.688C97.7198 46.5627 97.2185 47 96.2158 47C95.4265 47 94.8932 46.8187 94.6158 46.456C94.3385 46.072 94.1998 45.496 94.1998 44.728C94.1998 43.2133 94.1572 41.3253 94.0718 39.064C93.9865 37.1867 93.9438 35.8533 93.9438 35.064C93.9438 34.5307 94.0078 32.8987 94.1358 30.168L90.3918 30.2C89.1972 30.2 88.3652 30.0933 87.8958 29.88C87.4265 29.6453 87.1918 29.1333 87.1918 28.344ZM116.809 47.032C115.401 47.032 114.111 46.8613 112.937 46.52C111.764 46.1573 110.804 45.6347 110.057 44.952C108.692 43.736 107.732 42.4133 107.177 40.984C106.644 39.5333 106.377 37.688 106.377 35.448C106.377 34.9787 106.441 34.5413 106.569 34.136C106.719 33.7093 106.911 33.24 107.145 32.728C107.209 32.5787 107.305 32.344 107.433 32.024C107.583 31.6827 107.679 31.3733 107.721 31.096C108.127 30.3493 108.809 29.6347 109.769 28.952C110.751 28.2693 111.807 27.7253 112.937 27.32C114.068 26.8933 115.06 26.68 115.913 26.68C120.031 26.68 122.975 28.088 124.745 30.904C125.748 32.5467 126.249 34.2 126.249 35.864C126.249 38.0187 125.855 39.9067 125.065 41.528C124.297 43.1493 123.231 44.408 121.865 45.304C121.012 45.816 120.137 46.232 119.241 46.552C118.345 46.872 117.535 47.032 116.809 47.032ZM109.705 37.816C109.684 38.9893 109.929 39.96 110.441 40.728C110.975 41.4747 111.807 42.296 112.937 43.192C113.791 43.512 114.388 43.7253 114.729 43.832C115.071 43.9387 115.444 43.992 115.849 43.992C117.236 43.992 118.463 43.704 119.529 43.128C120.596 42.552 121.417 41.7627 121.993 40.76C122.591 39.7573 122.889 38.6373 122.889 37.4C122.889 35.7787 122.708 34.4987 122.345 33.56C121.983 32.6213 121.332 31.7787 120.393 31.032C119.903 30.6267 119.273 30.328 118.505 30.136C117.759 29.944 116.959 29.848 116.105 29.848C114.057 29.848 112.468 30.5733 111.337 32.024C110.228 33.4533 109.684 35.384 109.705 37.816ZM139.519 26.648C140.884 26.648 142.058 26.8187 143.039 27.16C144.042 27.5013 144.927 28.024 145.695 28.728C147.039 29.944 147.978 31.2773 148.511 32.728C149.066 34.1573 149.343 35.992 149.343 38.232C149.343 38.7867 149.268 39.3093 149.119 39.8C148.97 40.2693 148.746 40.8453 148.447 41.528L148.031 42.552C147.732 43.3627 147.114 44.12 146.175 44.824C145.236 45.5067 144.18 46.0507 143.007 46.456C141.834 46.8613 140.767 47.064 139.807 47.064C137.844 47.064 136.127 46.744 134.655 46.104C133.204 45.4427 131.999 44.408 131.039 43C130.548 42.2533 130.164 41.4213 129.887 40.504C129.61 39.5653 129.471 38.6693 129.471 37.816C129.471 35.64 129.855 33.752 130.623 32.152C131.412 30.5307 132.5 29.272 133.887 28.376C134.676 27.9067 135.615 27.5013 136.703 27.16C137.812 26.8187 138.751 26.648 139.519 26.648ZM132.863 37.816C132.863 38.9253 133.13 39.96 133.663 40.92C134.218 41.8587 134.954 42.6053 135.871 43.16C136.81 43.7147 137.834 43.992 138.943 43.992C141.226 43.992 142.964 43.416 144.159 42.264C145.375 41.112 145.983 39.4907 145.983 37.4C145.983 35.7787 145.802 34.4987 145.439 33.56C145.076 32.6213 144.426 31.7787 143.487 31.032C142.975 30.6053 142.42 30.3067 141.823 30.136C141.247 29.944 140.564 29.848 139.775 29.848C138.41 29.848 137.204 30.1893 136.159 30.872C135.114 31.5547 134.303 32.504 133.727 33.72C133.151 34.936 132.863 36.3013 132.863 37.816ZM154.901 26.68C155.306 26.68 155.669 26.7867 155.989 27C156.33 27.2133 156.533 27.5867 156.597 28.12C156.853 29.8053 157.013 31.4907 157.077 33.176C157.162 34.84 157.205 36.728 157.205 38.84C157.205 39.736 157.13 41.368 156.981 43.736C157.92 43.8213 158.645 43.864 159.157 43.864C159.52 43.864 160.341 43.8107 161.621 43.704C162.368 43.5973 163.018 43.544 163.573 43.544C164.085 43.544 164.554 43.5973 164.981 43.704C165.408 43.7893 165.845 43.9387 166.293 44.152C166.741 44.408 166.965 44.8027 166.965 45.336C166.965 45.7627 166.826 46.1467 166.549 46.488C166.293 46.8293 165.984 47 165.621 47C165.365 47 164.96 46.9573 164.405 46.872C163.402 46.7227 162.442 46.648 161.525 46.648C161.226 46.648 160.885 46.6693 160.501 46.712C160.138 46.7333 159.872 46.744 159.701 46.744C159.189 46.808 158.677 46.84 158.165 46.84C157.12 46.84 156.181 46.7867 155.349 46.68C154.922 46.6373 154.496 46.4773 154.069 46.2C153.642 45.9013 153.429 45.4747 153.429 44.92C153.429 44.6 153.472 43.7787 153.557 42.456C153.706 40.2587 153.781 38.584 153.781 37.432C153.781 36.536 153.738 35.5973 153.653 34.616C153.568 33.6347 153.514 33.016 153.493 32.76C153.301 30.9467 153.205 29.4533 153.205 28.28C153.205 27.7253 153.333 27.32 153.589 27.064C153.866 26.808 154.304 26.68 154.901 26.68ZM183.793 41.496C183.793 42.4987 183.58 43.3093 183.153 43.928C182.726 44.5467 181.99 45.1547 180.945 45.752C180.241 46.1787 179.43 46.5093 178.513 46.744C177.596 46.9573 176.668 47.064 175.729 47.064C175.153 47.064 174.481 46.9573 173.713 46.744C172.966 46.5093 172.358 46.2853 171.889 46.072L171.345 45.592C170.385 44.8027 169.713 44.1733 169.329 43.704C168.966 43.2133 168.785 42.616 168.785 41.912C168.785 41.3573 168.913 40.9413 169.169 40.664C169.425 40.3867 169.841 40.248 170.417 40.248C170.716 40.248 170.993 40.344 171.249 40.536C171.505 40.728 171.729 40.9947 171.921 41.336C172.454 42.2747 173.084 42.968 173.809 43.416C174.556 43.8427 175.43 44.056 176.433 44.056C177.372 44.056 178.321 43.768 179.281 43.192C180.07 42.7013 180.465 42.2213 180.465 41.752C180.465 40.92 180.092 40.2267 179.345 39.672C178.62 39.1173 177.574 38.616 176.209 38.168C175.377 37.8693 174.129 37.3147 172.465 36.504C171.334 35.9493 170.492 35.2667 169.937 34.456C169.382 33.6453 169.105 32.792 169.105 31.896C169.105 31.0853 169.382 30.296 169.937 29.528C170.513 28.7387 171.206 28.152 172.017 27.768C172.444 27.5547 173.126 27.3307 174.065 27.096C175.004 26.84 175.708 26.712 176.177 26.712C177.052 26.712 177.809 26.8187 178.449 27.032C179.089 27.224 179.718 27.5013 180.337 27.864C181.276 28.3973 181.969 28.8773 182.417 29.304C182.865 29.7307 183.089 30.264 183.089 30.904C183.089 31.288 182.94 31.6293 182.641 31.928C182.364 32.2267 181.873 32.376 181.169 32.376C180.998 32.376 180.828 32.3013 180.657 32.152C180.486 32.0027 180.273 31.7787 180.017 31.48C179.676 31.032 179.345 30.7333 179.025 30.584C178.94 30.5627 178.588 30.424 177.969 30.168C177.372 29.912 176.625 29.784 175.729 29.784C174.876 29.784 174.118 29.9867 173.457 30.392C172.796 30.776 172.465 31.3413 172.465 32.088C172.465 32.8347 173.137 33.4427 174.481 33.912C175.91 34.4667 177.094 34.9467 178.033 35.352C178.993 35.7573 179.921 36.2373 180.817 36.792C181.841 37.4107 182.588 38.0613 183.057 38.744C183.548 39.4267 183.793 40.344 183.793 41.496Z" fill="white"/>
</svg>
