<svg width="212" height="73" viewBox="0 0 212 73" fill="none" xmlns="http://www.w3.org/2000/svg">
<path d="M5.4018 11.5678C4.44458 17.3111 3.33947 22.7358 2.95219 28.5449C2.95219 30.5534 1.63405 32.0963 1.72739 34.0565C1.88576 37.3824 2.73534 39.4445 2.37381 42.6982C1.91718 46.8079 2.14756 50.1454 4.65331 53.6534C6.03364 55.5859 7.09961 58.0631 8.73599 59.7774C9.69654 60.7837 12.2381 63.9166 13.6012 64.0302C16.3258 64.2573 19.0295 63.856 21.7325 64.4725C24.6374 65.135 27.0803 66.8817 30.136 66.718C38.2052 66.2857 44.7601 66.5834 52.6929 68.6232C58.3712 70.0834 64.0591 71.4042 69.9762 70.6646C76.7001 69.8241 82.9407 67.0186 89.7092 66.2757C99.6705 65.1824 109.926 64.9687 119.921 65.153C123.983 65.2278 127.618 64.1578 131.625 63.8941C135.979 63.6077 140.101 64.5137 144.417 63.4519C147.972 62.5772 150.411 61.6123 154.011 63.0096C156.88 64.1227 159.612 66.1301 162.823 65.9695C165.961 65.8126 168.806 64.1861 171.975 64.0643C174.753 63.9574 177.499 63.9857 180.277 63.758C186.048 63.285 192.086 63.7661 197.56 61.4786C201.676 59.7584 203.778 56.421 205.385 52.5647C206.924 48.872 208.15 44.9574 209.332 41.1332C211.073 35.4984 207.035 29.9368 204.807 25.0066C201.817 18.3911 198.12 12.2291 191.504 8.47175C185.457 5.03761 177.875 5.31585 171.227 3.91275C167.88 3.20643 164.954 2.25428 161.496 2.34772C157.68 2.45086 153.608 2.13832 149.827 2.65393C146.43 3.11715 143.295 4.58453 139.926 5.13756C136.607 5.68253 134.199 5.77509 130.944 7.07683C127.822 8.32588 124.953 8.0886 121.69 7.45108C115.231 6.18896 108.785 4.35839 102.161 4.21895C98.3791 4.13933 94.8675 5.57243 91.1381 5.61387C88.927 5.63844 86.9082 4.66989 84.7419 4.38907C80.6287 3.85587 77.1885 4.65064 73.2423 5.61387C67.6317 6.98339 61.9426 5.66576 56.4693 4.287L56.1968 4.21834C49.6619 2.5715 43.7605 1.08431 37.0426 2.68795C34.6423 3.26093 32.3905 4.01516 29.8979 4.04884C28.2034 4.07174 26.2752 3.28706 24.6244 3.60655C22.5918 3.99996 21.018 5.71718 19.2149 6.63454C16.5046 8.01345 13.8629 8.33566 10.8794 8.33566C9.00627 8.33566 5.75356 9.45725 5.4018 11.5678Z" fill="#343434" stroke="#343434" stroke-width="3" stroke-linecap="round"/>
<path d="M27.6801 28.344C27.6801 27.4267 28.3521 26.968 29.6961 26.968C30.2721 26.968 31.3708 26.9893 32.9921 27.032C34.7841 27.1173 36.1388 27.16 37.0561 27.16C37.8028 27.16 38.7095 27.1173 39.7761 27.032C40.5015 26.9893 40.9601 26.968 41.1521 26.968C42.3255 27.0107 43.3175 27.224 44.1281 27.608C44.3628 27.7147 44.5548 27.8427 44.7041 27.992C44.8535 28.1413 44.9281 28.3867 44.9281 28.728C44.9281 29.1973 44.7788 29.6027 44.4801 29.944C44.1815 30.264 43.8188 30.424 43.3921 30.424C42.9228 30.424 42.2401 30.36 41.3441 30.232C40.5548 30.0827 39.8615 30.008 39.2641 30.008C38.6881 30.008 38.2508 30.0187 37.9521 30.04C37.8881 30.744 37.8561 32.4293 37.8561 35.096C37.8561 38.2747 37.9521 41.496 38.1441 44.76L38.2081 45.688C38.2081 46.5627 37.7068 47 36.7041 47C35.9148 47 35.3815 46.8187 35.1041 46.456C34.8268 46.072 34.6881 45.496 34.6881 44.728C34.6881 43.2133 34.6455 41.3253 34.5601 39.064C34.4748 37.1867 34.4321 35.8533 34.4321 35.064C34.4321 34.5307 34.4961 32.8987 34.6241 30.168L30.8801 30.2C29.6855 30.2 28.8535 30.0933 28.3841 29.88C27.9148 29.6453 27.6801 29.1333 27.6801 28.344ZM60.6896 42.648C61.095 42.648 61.3936 42.808 61.5856 43.128C61.799 43.4267 61.9056 43.7573 61.9056 44.12C61.9056 44.568 61.831 44.888 61.6816 45.08C61.5536 45.2507 61.2976 45.432 60.9136 45.624C60.0176 46.0507 58.9083 46.392 57.5856 46.648C56.263 46.904 54.8443 47.032 53.3296 47.032C51.431 47.032 50.0336 46.712 49.1376 46.072C48.263 45.432 47.719 44.664 47.5056 43.768C47.3136 42.8507 47.2176 41.656 47.2176 40.184C47.2176 38.6053 47.2816 37.0587 47.4096 35.544C47.5376 34.008 47.7616 32.056 48.0816 29.688C48.231 28.664 48.6363 27.928 49.2976 27.48C49.959 27.0107 50.6843 26.776 51.4736 26.776C52.135 26.776 53.2123 26.7547 54.7056 26.712L57.4896 26.68C58.6416 26.68 59.4736 26.712 59.9856 26.776C60.6256 26.904 61.095 27.0533 61.3936 27.224C61.7136 27.3733 61.8736 27.64 61.8736 28.024C61.8736 28.4507 61.7243 28.8667 61.4256 29.272C61.1483 29.6773 60.7216 29.88 60.1456 29.88C59.4843 29.88 58.535 29.8373 57.2976 29.752C56.0603 29.6667 55.1323 29.624 54.5136 29.624C53.9803 29.624 53.4576 29.656 52.9456 29.72C52.3483 29.7627 51.9216 29.8373 51.6656 29.944C51.4096 30.0507 51.2603 30.232 51.2176 30.488C50.919 32.6853 50.7696 34.3067 50.7696 35.352C51.2603 35.416 51.7403 35.448 52.2096 35.448C52.807 35.448 53.447 35.416 54.1296 35.352C54.8123 35.288 55.2496 35.2453 55.4416 35.224C56.5723 35.1173 57.543 35.064 58.3536 35.064C58.823 35.064 59.175 35.1493 59.4096 35.32C59.6656 35.4907 59.7936 35.7253 59.7936 36.024C59.7936 36.4933 59.6656 36.856 59.4096 37.112C59.175 37.368 58.7483 37.56 58.1296 37.688C57.383 37.8373 56.455 37.9547 55.3456 38.04C54.2576 38.1253 53.191 38.168 52.1456 38.168C51.783 38.168 51.2816 38.1467 50.6416 38.104C50.5776 39.4053 50.5456 40.6107 50.5456 41.72C50.5456 43.2347 51.5483 43.992 53.5536 43.992C54.6203 43.992 55.5056 43.9173 56.2096 43.768C56.9136 43.6187 57.7243 43.4053 58.6416 43.128C59.495 42.808 60.1776 42.648 60.6896 42.648ZM66.8579 26.68C67.2632 26.68 67.6259 26.7867 67.9459 27C68.2872 27.2133 68.4899 27.5867 68.5539 28.12C68.8099 29.8053 68.9699 31.4907 69.0339 33.176C69.1192 34.84 69.1619 36.728 69.1619 38.84C69.1619 39.736 69.0872 41.368 68.9379 43.736C69.8765 43.8213 70.6019 43.864 71.1139 43.864C71.4765 43.864 72.2979 43.8107 73.5779 43.704C74.3245 43.5973 74.9752 43.544 75.5299 43.544C76.0419 43.544 76.5112 43.5973 76.9379 43.704C77.3645 43.7893 77.8019 43.9387 78.2499 44.152C78.6979 44.408 78.9219 44.8027 78.9219 45.336C78.9219 45.7627 78.7832 46.1467 78.5059 46.488C78.2499 46.8293 77.9405 47 77.5779 47C77.3219 47 76.9165 46.9573 76.3619 46.872C75.3592 46.7227 74.3992 46.648 73.4819 46.648C73.1832 46.648 72.8419 46.6693 72.4579 46.712C72.0952 46.7333 71.8285 46.744 71.6579 46.744C71.1459 46.808 70.6339 46.84 70.1219 46.84C69.0765 46.84 68.1379 46.7867 67.3059 46.68C66.8792 46.6373 66.4525 46.4773 66.0259 46.2C65.5992 45.9013 65.3859 45.4747 65.3859 44.92C65.3859 44.6 65.4285 43.7787 65.5139 42.456C65.6632 40.2587 65.7379 38.584 65.7379 37.432C65.7379 36.536 65.6952 35.5973 65.6099 34.616C65.5245 33.6347 65.4712 33.016 65.4499 32.76C65.2579 30.9467 65.1619 29.4533 65.1619 28.28C65.1619 27.7253 65.2899 27.32 65.5459 27.064C65.8232 26.808 66.2605 26.68 66.8579 26.68ZM95.9421 44.952C95.9635 45.4 95.9101 45.72 95.7821 45.912C95.6541 46.0827 95.3981 46.264 95.0141 46.456C94.4381 46.7333 93.7555 46.9147 92.9661 47C92.1981 47.0853 91.2061 47.128 89.9901 47.128H87.8141C85.9155 47.128 84.5075 46.808 83.5901 46.168C82.6728 45.5067 82.0968 44.7173 81.8621 43.8C81.6275 42.8827 81.4888 41.6987 81.4461 40.248C81.4248 39.7573 81.4141 39.032 81.4141 38.072C81.4141 35.9813 81.5955 33.1867 81.9581 29.688C82.0648 28.664 82.4381 27.928 83.0781 27.48C83.7181 27.0107 84.4435 26.776 85.2541 26.776C85.9155 26.776 86.9928 26.7547 88.4861 26.712L91.3021 26.68C92.4541 26.68 93.2861 26.712 93.7981 26.776C94.4381 26.904 94.9181 27.0533 95.2381 27.224C95.5581 27.3733 95.7288 27.64 95.7501 28.024C95.7501 28.4507 95.6115 28.8667 95.3341 29.272C95.0568 29.6773 94.6301 29.88 94.0541 29.88C93.3928 29.88 92.4435 29.8373 91.2061 29.752C89.9688 29.6667 89.0301 29.624 88.3901 29.624C87.8141 29.624 87.2915 29.656 86.8221 29.72C86.2248 29.7627 85.7981 29.8373 85.5421 29.944C85.2861 30.0507 85.1475 30.232 85.1261 30.488C84.8915 32.8133 84.7955 34.4347 84.8381 35.352C85.3288 35.416 85.8195 35.448 86.3101 35.448C86.8008 35.448 87.4728 35.4053 88.3261 35.32C88.5395 35.2987 88.8061 35.2773 89.1261 35.256C89.4461 35.2347 89.8088 35.224 90.2141 35.224C90.4488 35.224 90.8221 35.2453 91.3341 35.288L92.3261 35.32C93.3075 35.32 93.7981 35.672 93.7981 36.376C93.7981 36.8027 93.6808 37.144 93.4461 37.4C93.2115 37.656 92.7955 37.848 92.1981 37.976C91.3875 38.1253 90.0755 38.2 88.2621 38.2H86.3101C85.9048 38.2 85.4035 38.1787 84.8061 38.136C84.7848 38.52 84.7741 39.0747 84.7741 39.8C84.7741 40.7387 84.7848 41.4 84.8061 41.784C84.8701 43.2773 85.9048 44.024 87.9101 44.024C88.5928 44.024 89.3181 44.0453 90.0861 44.088L91.2701 44.12C91.8248 44.12 92.2835 44.0667 92.6461 43.96C93.0088 43.832 93.3608 43.7253 93.7021 43.64C94.0648 43.5333 94.3955 43.48 94.6941 43.48C95.0995 43.48 95.4088 43.64 95.6221 43.96C95.8355 44.2587 95.9421 44.5893 95.9421 44.952ZM113.688 31.608C113.582 31.5227 113.24 31.2773 112.664 30.872C112.088 30.4453 111.534 30.1467 111 29.976C110.467 29.784 109.902 29.688 109.304 29.688C108.387 29.688 107.512 29.8053 106.68 30.04C105.848 30.2533 105.134 30.584 104.536 31.032C102.787 32.312 101.912 34.4987 101.912 37.592C101.912 38.936 102.232 40.12 102.872 41.144C103.512 42.1467 104.334 42.9147 105.336 43.448C106.339 43.9813 107.374 44.248 108.44 44.248C109.507 44.248 110.435 44.088 111.224 43.768C112.014 43.4267 112.643 42.9893 113.112 42.456C113.496 41.9653 113.752 41.4213 113.88 40.824C114.008 40.2053 114.072 39.5333 114.072 38.808C114.072 38.5947 113.902 38.4453 113.56 38.36C113.219 38.2747 112.728 38.232 112.088 38.232C111.768 38.232 111.203 38.2533 110.392 38.296L108.92 38.36C108.302 38.36 107.811 38.2427 107.448 38.008C107.086 37.7733 106.904 37.464 106.904 37.08C106.904 36.0987 107.534 35.608 108.792 35.608C109.816 35.608 110.894 35.64 112.024 35.704C113.432 35.7467 114.392 35.768 114.904 35.768C115.651 35.768 116.248 36.0027 116.696 36.472C117.166 36.9413 117.4 37.624 117.4 38.52C117.4 39.3733 117.219 40.3547 116.856 41.464C116.494 42.552 115.992 43.5333 115.352 44.408C114.712 45.2613 113.784 45.912 112.568 46.36C111.352 46.7867 109.976 47 108.44 47C107.182 47 105.944 46.7973 104.728 46.392C103.534 45.9867 102.542 45.4213 101.752 44.696C100.771 43.7787 99.9924 42.6907 99.4164 41.432C98.8617 40.152 98.5844 38.8827 98.5844 37.624C98.5844 35.7467 98.979 33.9547 99.7684 32.248C100.558 30.52 101.678 29.176 103.128 28.216C103.768 27.7893 104.696 27.4373 105.912 27.16C107.15 26.8827 108.259 26.744 109.24 26.744C112.163 26.744 114.243 27.6293 115.48 29.4C115.736 29.784 115.864 30.1253 115.864 30.424C115.864 30.7653 115.715 31.0853 115.416 31.384C115.118 31.6827 114.819 31.832 114.52 31.832C114.392 31.832 114.243 31.8107 114.072 31.768C113.902 31.7253 113.774 31.672 113.688 31.608ZM131.75 38.52C132.497 39.7787 133.243 40.8987 133.99 41.88C134.758 42.84 135.761 44.024 136.998 45.432C137.147 45.5813 137.222 45.752 137.222 45.944C137.222 46.2427 137.051 46.4987 136.71 46.712C136.39 46.9253 135.995 47.032 135.526 47.032C134.865 47.032 134.15 46.7547 133.382 46.2C132.699 45.7093 132.091 45.0587 131.558 44.248C131.025 43.4373 130.406 42.3813 129.702 41.08C129.147 40.0773 128.817 39.4907 128.71 39.32C127.878 39.6613 126.577 39.8747 124.806 39.96C124.806 40.6853 124.87 41.6667 124.998 42.904C125.126 44.184 125.19 45.112 125.19 45.688C125.19 46.072 124.998 46.392 124.614 46.648C124.251 46.904 123.835 47.032 123.366 47.032C122.811 47.032 122.385 46.808 122.086 46.36C121.787 45.7627 121.595 45.048 121.51 44.216C121.425 43.384 121.382 42.392 121.382 41.24C121.382 40.024 121.457 38.648 121.606 37.112C121.734 35.4053 121.798 34.1467 121.798 33.336C121.798 32.6747 121.734 31.7893 121.606 30.68C121.585 30.488 121.553 30.1573 121.51 29.688C121.467 29.2187 121.446 28.792 121.446 28.408C121.446 28.1093 121.553 27.8533 121.766 27.64C122.001 27.4053 122.246 27.2453 122.502 27.16C124.23 26.8827 125.915 26.744 127.558 26.744C130.353 26.744 132.667 27.2667 134.502 28.312C136.337 29.3573 137.254 30.9467 137.254 33.08C137.254 33.7413 137.105 34.3813 136.806 35C136.529 35.5973 136.145 36.0987 135.654 36.504C134.353 37.5067 133.051 38.1787 131.75 38.52ZM133.894 32.984C133.894 31.96 133.35 31.128 132.262 30.488C131.174 29.8267 129.627 29.496 127.622 29.496C126.726 29.496 125.841 29.6027 124.966 29.816L124.998 31.448C124.998 32.3867 124.966 33.304 124.902 34.2C124.838 35.096 124.806 36.056 124.806 37.08C125.169 36.9947 125.553 36.9413 125.958 36.92C126.363 36.8773 126.63 36.8453 126.758 36.824C127.697 36.7387 128.422 36.632 128.934 36.504C129.894 36.2053 130.683 35.9387 131.302 35.704C131.942 35.448 132.529 35.096 133.062 34.648C133.617 34.1787 133.894 33.624 133.894 32.984ZM155.287 46.52C155.009 46.1573 154.785 45.816 154.615 45.496C154.465 45.1547 154.273 44.6853 154.039 44.088C153.655 43.128 153.313 42.424 153.015 41.976C151.713 42.168 150.583 42.264 149.623 42.264C149.153 42.264 148.62 42.2533 148.023 42.232C147.447 42.2107 146.999 42.1893 146.679 42.168C145.569 42.0827 144.684 42.04 144.023 42.04C143.745 42.3813 143.521 42.744 143.351 43.128C143.201 43.4907 143.031 43.9493 142.839 44.504C142.519 45.4427 142.209 46.1573 141.911 46.648C141.719 46.968 141.345 47.128 140.791 47.128C140.321 47.128 139.884 47.032 139.479 46.84C139.095 46.6267 138.903 46.3387 138.903 45.976C139.073 45.1653 139.34 44.312 139.703 43.416C140.087 42.4987 140.631 41.2827 141.335 39.768L142.615 36.632C143.319 34.84 143.959 33.304 144.535 32.024C145.132 30.744 145.911 29.2293 146.871 27.48C146.999 27.224 147.212 27.0107 147.511 26.84C147.809 26.648 148.14 26.552 148.503 26.552C148.908 26.552 149.196 26.584 149.367 26.648C149.559 26.6907 149.708 26.776 149.815 26.904C149.921 27.0107 150.081 27.2453 150.295 27.608C151.02 28.7387 151.639 29.9013 152.151 31.096C152.684 32.2907 153.356 33.944 154.167 36.056L154.839 37.752C155.436 39.288 155.948 40.5787 156.375 41.624C156.823 42.648 157.313 43.5867 157.847 44.44C158.188 44.9947 158.359 45.3787 158.359 45.592C158.359 46.104 158.199 46.4987 157.879 46.776C157.58 47.032 157.185 47.16 156.695 47.16C156.076 47.16 155.607 46.9467 155.287 46.52ZM152.087 39.352C151.788 38.7333 151.393 37.6667 150.903 36.152C150.732 35.5973 150.604 35.2133 150.519 35C149.857 33.08 149.196 31.5547 148.535 30.424C148.129 31.448 147.532 32.7707 146.743 34.392C146.252 35.3093 145.58 36.952 144.727 39.32C146.092 39.4907 147.639 39.576 149.367 39.576C150.561 39.576 151.468 39.5013 152.087 39.352ZM182.059 28.376C182.059 29.656 182.017 31.448 181.931 33.752C181.91 34.3067 181.889 34.9787 181.867 35.768C181.846 36.536 181.835 37.432 181.835 38.456C181.835 41.8053 182.017 44.2053 182.379 45.656C182.358 46.1893 182.155 46.5733 181.771 46.808C181.387 47.0213 180.993 47.128 180.587 47.128C179.755 47.128 179.201 46.8293 178.923 46.232C178.667 45.6133 178.539 44.7493 178.539 43.64C178.539 39.5227 178.603 35.7147 178.731 32.216C178.326 33.0267 177.942 33.9227 177.579 34.904C177.238 35.864 176.779 37.208 176.203 38.936C175.606 40.8133 175.094 42.296 174.667 43.384C174.262 44.472 173.835 45.3147 173.387 45.912C173.259 45.976 173.003 46.104 172.619 46.296C172.257 46.4667 171.937 46.552 171.659 46.552C171.211 46.552 170.891 46.4773 170.699 46.328C170.507 46.1787 170.337 45.9653 170.187 45.688C170.038 45.4107 169.91 45.1867 169.803 45.016C169.462 44.504 169.025 43.6613 168.491 42.488C167.958 41.3147 167.467 40.088 167.019 38.808C166.849 38.36 166.689 37.9333 166.539 37.528C166.411 37.1013 166.283 36.7067 166.155 36.344C165.899 35.576 165.643 34.8613 165.387 34.2C165.153 33.5173 164.95 33.0373 164.779 32.76C164.779 33.8907 164.747 35.0213 164.683 36.152C164.641 37.5173 164.619 38.4987 164.619 39.096C164.619 39.5227 164.641 40.0987 164.683 40.824C164.811 43.0427 164.875 44.504 164.875 45.208C164.875 45.72 164.747 46.1573 164.491 46.52C164.235 46.8827 163.841 47.064 163.307 47.064C162.731 47.064 162.262 46.9573 161.899 46.744C161.558 46.5093 161.377 46.168 161.355 45.72C161.377 45.3573 161.387 44.7707 161.387 43.96C161.387 42.3173 161.323 39.704 161.195 36.12L161.163 34.968C161.163 34.1573 161.206 33.0053 161.291 31.512C161.313 31.1493 161.334 30.7227 161.355 30.232C161.377 29.7413 161.387 29.208 161.387 28.632C161.387 27.9707 161.611 27.4907 162.059 27.192C162.507 26.872 163.083 26.712 163.787 26.712C164.214 26.712 164.641 26.8187 165.067 27.032C165.515 27.2453 165.846 27.5547 166.059 27.96C166.486 28.8347 166.913 29.8693 167.339 31.064C167.766 32.2373 168.342 33.912 169.067 36.088C169.75 38.1573 170.294 39.736 170.699 40.824C171.105 41.8907 171.446 42.616 171.723 43L172.459 40.824C174.87 33.464 176.491 29.112 177.323 27.768C177.515 27.512 177.846 27.288 178.315 27.096C178.806 26.8827 179.265 26.776 179.691 26.776C180.011 26.776 180.481 26.9787 181.099 27.384C181.739 27.768 182.059 28.0987 182.059 28.376Z" fill="white"/>
</svg>
