<svg width="97" height="73" viewBox="0 0 97 73" fill="none" xmlns="http://www.w3.org/2000/svg">
<path d="M3.64474 11.5849C3.21682 17.3385 2.72279 22.773 2.54966 28.5925C2.54966 30.6046 1.96039 32.1503 2.00212 34.114C2.07292 37.4458 2.45272 39.5116 2.2911 42.7712C2.08696 46.8882 2.18995 50.2317 3.31013 53.746C3.9272 55.682 4.40373 58.1636 5.13527 59.881C5.56467 60.8891 6.70088 64.0277 7.31022 64.1414C8.52824 64.3689 9.73693 63.9669 10.9453 64.5845C12.2439 65.2482 13.336 66.998 14.702 66.834C18.3093 66.401 21.2396 66.6992 24.7859 68.7427C27.3244 70.2055 29.8671 71.5287 32.5123 70.7877C35.5182 69.9457 38.308 67.1352 41.3338 66.3909C45.7869 65.2957 50.3717 65.0816 54.8398 65.2662C56.6555 65.3412 58.2806 64.2692 60.0719 64.0051C62.0184 63.7181 63.8612 64.6258 65.7906 63.562C67.3799 62.6858 68.47 61.7191 70.0797 63.1189C71.362 64.2341 72.5835 66.245 74.0189 66.0842C75.4217 65.927 76.6935 64.2976 78.1103 64.1755C79.3519 64.0685 80.5796 64.0969 81.8214 63.8688C84.4013 63.3949 87.1008 63.8768 89.5478 61.5852C91.3879 59.8619 92.3277 56.5185 93.046 52.6554C93.7338 48.956 94.2819 45.0344 94.8103 41.2034C95.5889 35.5585 93.7835 29.9869 92.7874 25.0479C91.4509 18.4205 89.7982 12.2474 86.8405 8.48335C84.1372 5.04305 80.7476 5.3218 77.7757 3.91618C76.2796 3.20859 74.9715 2.25473 73.4258 2.34835C71.7198 2.45167 69.8992 2.13857 68.2089 2.6551C66.6903 3.11915 65.2888 4.58916 63.783 5.14318C62.2991 5.68913 61.2225 5.78186 59.7677 7.08593C58.3717 8.33722 57.0892 8.09952 55.6307 7.46085C52.7432 6.19647 49.8614 4.36262 46.9005 4.22293C45.2096 4.14316 43.6398 5.57884 41.9726 5.62035C40.9841 5.64496 40.0817 4.67467 39.1132 4.39335C37.2744 3.8592 35.7365 4.65539 33.9724 5.62035C31.4642 6.99233 28.9209 5.67233 26.4741 4.2911C23.5041 2.61448 20.8344 1.06037 17.7895 2.68918C16.7165 3.26319 15.7099 4.01877 14.5956 4.05252C13.838 4.07546 12.976 3.28936 12.2381 3.60943C11.3294 4.00355 10.6258 5.72384 9.81978 6.64285C8.60817 8.02423 7.42724 8.34702 6.09346 8.34702C5.25609 8.34702 3.80199 9.47062 3.64474 11.5849Z" fill="#343434" stroke="#343434" stroke-width="3" stroke-linecap="round"/>
<path d="M55.7213 26.744C56.1479 26.744 56.4679 26.8827 56.6813 27.16C56.9159 27.416 57.0333 27.768 57.0333 28.216C57.0333 28.7067 56.9053 29.2613 56.6493 29.88C55.9026 30.5627 55.0599 31.4693 54.1213 32.6C53.1826 33.7307 52.0733 35.1387 50.7933 36.824C51.9666 38.744 52.9159 40.1947 53.6413 41.176C54.3666 42.136 55.0599 42.7973 55.7213 43.16C55.9986 43.3093 56.3293 43.4373 56.7133 43.544C57.2039 43.6933 57.5666 43.8427 57.8013 43.992C58.0359 44.1413 58.1533 44.3653 58.1533 44.664C58.1533 45.2613 57.8759 45.7093 57.3213 46.008C56.7666 46.2853 56.0946 46.424 55.3053 46.424C54.2813 46.424 53.2679 45.8587 52.2653 44.728C51.2839 43.5973 50.0999 41.912 48.7133 39.672C47.3693 41.4427 46.2493 42.8827 45.3533 43.992C44.4573 45.08 43.6466 45.9653 42.9213 46.648C42.7719 46.776 42.5586 46.8827 42.2812 46.968C42.0039 47.032 41.7693 47.064 41.5773 47.064C41.1079 47.064 40.7026 46.872 40.3613 46.488C40.0413 46.104 39.8706 45.7093 39.8493 45.304C39.8493 45.24 39.9666 45.0267 40.2013 44.664C40.4359 44.3013 40.7986 43.8853 41.2893 43.416C41.8226 43.0107 42.5159 42.2853 43.3693 41.24C44.2439 40.1947 45.4173 38.712 46.8893 36.792L45.9613 35.32C45.1506 34.04 44.5533 33.1227 44.1693 32.568C43.7853 32.0133 43.4226 31.5973 43.0813 31.32C42.7399 31.0213 42.3773 30.872 41.9933 30.872C41.8653 30.872 41.6626 30.9147 41.3853 31C41.1293 31.064 40.9159 31.096 40.7453 31.096C40.5106 31.096 40.2973 31.0533 40.1053 30.968C39.5719 30.7333 39.3053 30.3813 39.3053 29.912C39.3053 29.6987 39.3479 29.5173 39.4333 29.368C39.6039 28.984 39.9559 28.632 40.4893 28.312C41.0439 27.9707 41.7906 27.8 42.7293 27.8C43.6039 27.8 44.3613 28.024 45.0013 28.472C45.6413 28.92 46.2279 29.528 46.7613 30.296C47.3159 31.064 48.0733 32.2693 49.0333 33.912C51.1453 31.0533 52.6386 29.1333 53.5133 28.152C54.0253 27.5547 54.4306 27.1707 54.7292 27C55.0279 26.8293 55.3586 26.744 55.7213 26.744Z" fill="white"/>
</svg>
